<svg width="311" height="67" viewBox="0 0 311 67" fill="none" xmlns="http://www.w3.org/2000/svg">
<path d="M7.0155 51.5143C7.0155 53.1469 6.68028 54.2882 6.02018 54.9048C5.33596 55.5432 4.45544 55.8543 3.32924 55.8543C2.61173 55.8543 1.77253 55.7751 0.836901 55.619L0 55.4789V66.3888L0.586635 66.4979C1.4729 66.6644 2.33047 66.7907 3.13293 66.8733C3.94342 66.9571 4.94219 66.9996 6.10283 66.9996C10.8935 66.9996 14.5878 65.794 17.0813 63.415C19.5828 61.0268 20.8525 57.5146 20.8525 52.4936V7.96303H7.0155V51.5143Z" fill="white"/>
<path d="M53.5117 33.8322C53.5117 36.5625 52.8769 38.6292 51.6244 39.976C50.3673 41.3274 48.6855 41.9842 46.4813 41.9842C44.2851 41.9842 42.6481 41.3331 41.4748 39.9921C40.2935 38.643 39.6942 36.5705 39.6942 33.8322V7.96388H25.8584V37.8083C25.8584 43.0267 27.2234 46.3816 29.9166 49.3853C32.6282 52.4141 36.4993 53.9492 41.4231 53.9492C43.0602 53.9492 44.5584 53.7449 45.8763 53.343C47.1839 52.9411 48.395 52.3889 49.4776 51.7C50.5498 51.0168 51.5383 50.2234 52.4154 49.3405C52.7931 48.9604 53.1593 48.678 53.5117 48.2784V53.9469H67.3487V7.96388H53.5117V33.8322Z" fill="white"/>
<path d="M124.791 7.96331C121.699 7.96331 118.901 8.58332 116.473 9.80727C114.333 10.8854 112.348 12.4331 110.562 14.4172C109.402 12.4963 107.849 10.9681 105.938 9.86697C103.743 8.60399 101.111 7.96331 98.1166 7.96331C96.4772 7.96331 94.9664 8.16768 93.6267 8.56954C92.2881 8.9714 91.062 9.52482 89.9806 10.2137C88.9061 10.898 87.9165 11.6914 87.0417 12.5721C86.6651 12.9521 86.2989 13.3413 85.9465 13.7409V7.96331H72.1095V53.9464H85.9465V28.8933C85.9465 26.1584 86.5572 24.0882 87.7615 22.7391C88.9635 21.3946 90.5891 20.7413 92.7324 20.7413C94.8654 20.7413 96.4462 21.3889 97.5655 22.723C98.6986 24.0744 99.2738 26.1503 99.2738 28.8933V53.9464H113.111V28.8933C113.111 26.1584 113.722 24.0882 114.926 22.7391C116.127 21.3946 117.753 20.7413 119.897 20.7413C122.03 20.7413 123.61 21.3889 124.73 22.723C125.863 24.0744 126.438 26.1503 126.438 28.8933V53.9464H140.274V24.7541C140.274 19.3118 138.889 15.1095 136.158 12.2632C133.419 9.41 129.594 7.96331 124.791 7.96331Z" fill="white"/>
<path d="M223.785 7.96408L214.752 37.6041L205.331 7.96294H190.628L208.023 53.9494C207.583 54.7646 206.423 55.3307 205.96 55.6326C205.456 55.961 204.724 56.1275 203.782 56.1275C203.05 56.1275 202.237 55.9759 201.365 55.6774C200.466 55.3686 199.62 54.822 198.85 54.3605L198.165 53.9494L191.837 61.2093C191.837 61.2093 193.847 63.1635 194.491 63.7227C195.906 64.9512 197.297 65.593 199.082 66.151C200.886 66.7148 202.989 66.9995 205.332 66.9995C207.242 66.9995 209.664 66.7699 211.143 66.3152C212.65 65.8514 214.013 65.0878 215.199 64.0476C216.365 63.0234 217.441 61.6892 218.401 60.0818C219.344 58.4996 220.241 57.1528 221.068 54.8932L238.235 7.96408H223.785Z" fill="white"/>
<path d="M190.114 21.3476C188.97 18.4749 187.661 16.0086 185.755 14.0177C183.844 12.0233 181.62 10.4974 179.146 9.48471C176.677 8.47547 174.088 7.96339 171.451 7.96339C168.069 7.96339 165.211 8.66607 162.958 10.0531C161.317 11.0634 159.84 12.292 158.547 13.718V7.96339H144.71V67H158.547V48.5776C159.803 49.8084 161.255 50.9233 162.882 51.9027C165.133 53.261 168.016 53.9487 171.451 53.9487C174.142 53.9487 176.758 53.4367 179.227 52.4274C181.704 51.4136 183.915 49.8877 185.8 47.8898C187.676 45.9024 188.971 43.4384 190.114 40.5645V41.3774C191.258 38.5036 191.837 35.1612 191.837 31.4446V31.2816C191.837 27.5661 191.258 24.2238 190.114 21.3476ZM169.748 41.8562C163.562 41.8562 158.546 36.8399 158.546 30.6524C158.546 24.4649 163.562 19.4497 169.748 19.4497C175.935 19.4497 180.95 24.4649 180.95 30.6524C180.95 36.8399 175.935 41.8562 169.748 41.8562Z" fill="white"/>
<path d="M271.148 0.531998H311V40.3895H271.148V0.531998Z" fill="#00D6ED"/>
<path d="M262.409 9.27188H302.261V49.1294H262.409V9.27188Z" fill="#00AAFF"/>
<path d="M252.072 19.6103H291.924V59.4679H272.12C261.048 59.4679 252.072 50.4915 252.072 39.4174V19.6103Z" fill="#0C70F1"/>
</svg>
